<svg id="Layer_1" data-name="Layer 1" xmlns="http://www.w3.org/2000/svg" viewBox="0 0 160.45 42.1" fill="#083755"><defs></defs><title>MIRUMEE LOGO</title><path class="cls-1" d="M144,27.83l-2.84-3.39A1.12,1.12,0,0,1,141,24v-5.2l.55-.55a.6.6,0,0,0,.16-.32V16.56a.51.51,0,0,0-.47-.47h-4.1a.51.51,0,0,0-.47.47V17.9c0,.08.08.24.08.32l.47.55V24a1.12,1.12,0,0,1-.16.47l-2.76,3.39a1.12,1.12,0,0,0-.16.47v4a.71.71,0,0,0,.71.71h8.59a.71.71,0,0,0,.71-.71v-4A.76.76,0,0,0,144,27.83Zm-3.86-11.28c0-.16.08-.32.16-.32H141c.08,0,.16.16.16.32v.63c0,.16-.08.32-.16.32l-.71-.24c-.08,0-.16-.16-.16-.32Zm3.15,14.51a1,1,0,0,1-.47.79c-.08.39-.24.71-.55.71h-.63a.64.64,0,0,0,.31-.63h-6a.87.87,0,0,1-.87-.87V28.23h6.78a2.32,2.32,0,0,0-.16-.71l-1.1-2.84a3.37,3.37,0,0,1-.16-.95V19.24h0c0-.47,0-.63.32-.79h-3.23c-.08,0-.08,0-.08-.08l-.32-.32a.15.15,0,0,1,.08-.24h4c.16,0,.16.16.08.24l-.32.32h0l-.32.47v4.89a2.17,2.17,0,0,0,.24,1l1.81,2.92a1.14,1.14,0,0,1,.16.55h.47v2.84Zm-4.81-5a.42.42,0,0,1,.39.39v.79a.42.42,0,0,1-.39.39h-.79a.42.42,0,0,1-.39-.39v-.79a.42.42,0,0,1,.39-.39Zm-.39-2.76v-.39a.17.17,0,0,1,.16-.16h.39a.17.17,0,0,1,.16.16v.39a.17.17,0,0,1-.16.16h-.39A.17.17,0,0,1,138.06,23.26Zm1.18,1h.63a.21.21,0,0,1,.24.24v.63a.21.21,0,0,1-.24.24h-.63a.21.21,0,0,1-.24-.24v-.63A.35.35,0,0,1,139.24,24.28Zm0-3.71v-.31a.17.17,0,0,1,.16-.16h.32a.17.17,0,0,1,.16.16v.31a.17.17,0,0,1-.16.16h-.32C139.32,20.74,139.24,20.74,139.24,20.58Z"/><path class="cls-1" d="M139.56,11.2h-1.1a.61.61,0,0,1-.39-.16l-.39-.39a.62.62,0,0,1-.16-.39V9.15a.54.54,0,0,0-.55-.55h-1.18a.54.54,0,0,0-.55.55v1.18a.54.54,0,0,0,.55.55h1.1a.94.94,0,0,1,.47.16l.4.4h0a.78.78,0,0,1,.16.47h0V13a.54.54,0,0,0,.55.55h1.18a.54.54,0,0,0,.55-.55V11.83C140.11,11.43,139.87,11.2,139.56,11.2Z"/><path class="cls-1" d="M129.7,10.8h1.1a.62.62,0,0,1,.39.16l.39.4a.62.62,0,0,1,.16.39v1.1a.54.54,0,0,0,.55.55h1.18a.54.54,0,0,0,.55-.55V11.67a.54.54,0,0,0-.55-.55h-1.1a.93.93,0,0,1-.47-.16l-.39-.39h0a.78.78,0,0,1-.16-.47h0V9a.54.54,0,0,0-.55-.55h-1.18a.54.54,0,0,0-.55.55v1.18C129.15,10.56,129.39,10.8,129.7,10.8Z"/><path class="cls-1" d="M134.83,12v1.1h0a.62.62,0,0,1-.16.4l-.39.39a.62.62,0,0,1-.39.16h-1.1a.54.54,0,0,0-.55.55v1.18a.54.54,0,0,0,.55.55H134a.54.54,0,0,0,.55-.55v-1.1h0a.94.94,0,0,1,.16-.47l.39-.39h0a.78.78,0,0,1,.47-.16h1.11a.54.54,0,0,0,.55-.55V11.91a.54.54,0,0,0-.55-.55h-1.18C135.06,11.43,134.83,11.67,134.83,12Z"/><path class="cls-1" d="M102,9h2.84v.55h-1.18v4.57h-.55V9.54h-1.18V9Z"/><path class="cls-1" d="M105.42,14.11V9H106v.63h.55v.63H106v3.86Zm1.18-2.68V10.25h.55v1.18h.55v.63h-.55v-.63Zm1.1,0V10.25h.55v1.18Zm1.18,2.68V10.25h-.55V9.62h.55V9h.55v5.12Z"/><path class="cls-1" d="M30.75,14.27H17.19V27.83h3.15V17.42H23.5V27.83h3.15V17.42H29.8V27.83H33V16.32H30.83V14.27Zm11.51,0v2.05H40.13V27.83h3.15V17.42h3.63V14.27ZM34.93,27.83h3.15V14.27H34.93Z"/><polygon class="cls-1" points="76.17 14.27 70.89 14.27 69.78 14.27 62.61 14.27 62.61 27.83 65.68 27.83 65.68 17.43 68.83 17.43 68.83 27.83 71.99 27.83 71.99 17.43 75.14 17.43 75.14 27.83 78.22 27.83 78.22 16.32 76.17 16.32 76.17 14.27"/><path class="cls-1" d="M88.63,14.27H82.4V16.4h-2v9.38h2v2.05h8.12V24.68h-7.1v-2h7.25V16.32H88.55V14.27ZM83.5,17.35h4.1v2.13H83.5Z"/><path class="cls-1" d="M101.16,14.27H94.93V16.4h-2v9.38h2v2.05h8.12V24.68H96v-2h7.25V16.32h-2.13V14.27ZM96,17.35h4.1v2.13H96Z"/><rect class="cls-1" x="34.93" y="8.99" width="3.15" height="3.15"/><polygon class="cls-1" points="57.32 24.84 52.12 24.84 52.12 14.27 49.04 14.27 49.04 25.78 51.09 25.78 51.09 27.83 58.27 27.83 60.48 27.83 60.48 25.78 60.48 14.27 57.32 14.27 57.32 24.84"/><path class="cls-1" d="M120.09,0H0V42.1H160.45V0Zm-1.89,40.13H2V1.89H118.19Zm40.29,0h-38.4V1.89h38.4Z"/></svg>